<?xml version="1.0" encoding="utf-8"?>
<!-- Generator: Adobe Illustrator 16.0.0, SVG Export Plug-In . SVG Version: 6.00 Build 0)  -->
<!DOCTYPE svg PUBLIC "-//W3C//DTD SVG 1.1//EN" "http://www.w3.org/Graphics/SVG/1.1/DTD/svg11.dtd">
<svg version="1.1" id="Layer_1" xmlns="http://www.w3.org/2000/svg" xmlns:xlink="http://www.w3.org/1999/xlink" x="0px" y="0px"
	 width="495.115px" height="512px" viewBox="-0.001 0 495.115 512" enable-background="new -0.001 0 495.115 512"
	 xml:space="preserve">
<g id="amazon">
	<g>
		<path d="M284.938,150.157c-55.466,1.84-195.726,17.717-195.726,133.829c0,124.942,160.63,130.15,212.384,49.447
			c1.997,3.273,4.243,6.455,7.082,9.45c19.028,20.028,44.424,43.831,44.424,43.831l64.7-63.89c0,0-36.779-28.825-36.779-60.146
			c0-31.32,0-139.041,0-167.835c0-28.825-27.921-93.963-128.154-93.963c-100.202,0-153.485,62.643-153.485,119.013l83.731,7.519
			c0,0,18.655-56.402,61.956-56.402c43.299,0,39.87,35.096,39.87,42.646C284.938,115.683,284.938,130.188,284.938,150.157z
			 M284.938,248.924c0,91.467-95.522,77.646-95.522,19.651c0-53.657,56.964-64.511,95.522-65.822
			C284.938,218.755,284.938,234.822,284.938,248.924z M434.306,421.781C223.731,522.014,93.019,438.129,9.319,387.184
			c-5.148-3.182-13.945,0.782-6.364,9.548C30.875,430.546,122.218,512,241.45,512c119.294,0,190.297-65.138,199.156-76.463
			C449.466,424.275,443.227,418.037,434.306,421.781z M493.421,389.117c-5.646-7.361-34.346-8.735-52.439-6.52
			c-18.125,2.152-45.299,13.227-42.928,19.872c1.188,2.495,3.65,1.373,16.129,0.188c12.417-1.215,47.388-5.583,54.655,3.93
			c7.332,9.547-11.137,55.25-14.506,62.611c-3.244,7.36,1.248,9.265,7.363,4.366c6.02-4.897,16.97-17.593,24.333-35.595
			C493.297,419.94,497.727,394.732,493.421,389.117z"/>
	</g>
</g>
</svg>
