<?xml version="1.0" encoding="utf-8"?>
<!-- Generator: Adobe Illustrator 16.0.0, SVG Export Plug-In . SVG Version: 6.00 Build 0)  -->
<!DOCTYPE svg PUBLIC "-//W3C//DTD SVG 1.1//EN" "http://www.w3.org/Graphics/SVG/1.1/DTD/svg11.dtd">
<svg version="1.1" id="Layer_1" xmlns="http://www.w3.org/2000/svg" xmlns:xlink="http://www.w3.org/1999/xlink" x="0px" y="0px"
	 width="514.912px" height="512px" viewBox="0 0 514.912 512" enable-background="new 0 0 514.912 512" xml:space="preserve">
<g id="behance">
	<g>
		<path d="M207.28,244.624c27.534-13.312,43.064-35.051,43.064-66.141c0-59.03-40.819-80.549-101.192-80.549H0v318.919h153.581
			c57.252,0,111.855-27.537,111.855-91.899C265.438,285.475,245.916,255.725,207.28,244.624z M63.709,154.065h71.223
			c24.853,0,47.959,6.238,47.959,36.424c0,26.63-18.21,37.7-42.627,37.7H63.709V154.065z M144.256,362.686H63.709v-87.003h81.889
			c29.749,0,50.142,12.879,50.142,45.277C195.74,353.829,171.792,362.686,144.256,362.686z M403.145,178.171
			c-69.666,0-117.157,52.358-117.157,121.182c0,71.003,44.812,120.712,117.157,120.712c51.952,0,89.688-12.099,107.43-66.267
			h-55.478c-3.99,14.221-24.417,18.771-49.738,18.771c-35.051,0-54.569-12.222-56.349-52.169h165.553
			C518.992,249.831,481.26,178.171,403.145,178.171z M349.01,286.441c0.872-17.745,12.411-60.776,52.356-60.776
			c30.624,0,44.408,28.844,50.176,60.776H349.01z M477.799,129.025h-158.57v32.307h158.569L477.799,129.025L477.799,129.025z"/>
	</g>
</g>
</svg>
