<?xml version="1.0" encoding="utf-8"?>
<!-- Generator: Adobe Illustrator 16.0.0, SVG Export Plug-In . SVG Version: 6.00 Build 0)  -->
<!DOCTYPE svg PUBLIC "-//W3C//DTD SVG 1.1//EN" "http://www.w3.org/Graphics/SVG/1.1/DTD/svg11.dtd">
<svg version="1.1" id="Layer_1" xmlns="http://www.w3.org/2000/svg" xmlns:xlink="http://www.w3.org/1999/xlink" x="0px" y="0px"
	 width="511.73px" height="512px" viewBox="0 0 511.73 512" enable-background="new 0 0 511.73 512" xml:space="preserve">
<g id="dribbble">
	<g>
		<path d="M255.865,0.269C114.564,0.269,0,114.833,0,256.135C0,397.436,114.564,512,255.865,512
			c141.301,0,255.865-114.564,255.865-255.865C511.73,114.833,397.166,0.269,255.865,0.269z M423.746,124.11
			c27.485,34.919,44.352,78.552,45.663,126.027c-57.375-10.026-106.881-10.369-149.67-3.624
			c-5.438-12.399-11.026-24.487-16.742-36.231C348.848,191.45,390.015,163.933,423.746,124.11z M255.865,42.403
			c52.753,0,101.167,19.303,138.459,51.161c-30.109,36.543-67.965,61.718-110.754,78.833
			c-27.361-50.786-55.565-93.045-78.053-123.903C221.665,44.527,238.499,42.403,255.865,42.403z M164.007,63.205
			c21.77,29.047,50.662,71.15,79.021,122.717c-60.03,16.523-127.121,20.989-195.147,21.145
			C62.842,143.476,106.288,90.815,164.007,63.205z M42.103,256.135c0-2.281,0.125-4.624,0.219-6.903c0.375,0,0.75,0.031,1.156,0.031
			c76.116,0,151.764-4.997,219.542-24.987c5.092,10.276,10.059,20.865,14.867,31.703c-89.204,26.143-144.737,84.83-182.842,140.675
			C62.124,359.08,42.103,309.889,42.103,256.135z M255.865,469.866c-48.755,0-93.7-16.46-129.713-44.04
			c36.044-54.378,86.361-108.1,168.163-130.682c19.146,48.975,34.73,102.415,42.915,158.541
			C312.18,464.118,284.631,469.866,255.865,469.866z M376.553,432.386c-8.715-51.315-23.02-100.198-40.321-145.517
			c37.417-4.748,80.395-3.624,130.242,5.496C456.511,350.305,423.246,400.34,376.553,432.386z"/>
	</g>
</g>
</svg>
