<?xml version="1.0" encoding="utf-8"?>
<!-- Generator: Adobe Illustrator 16.0.0, SVG Export Plug-In . SVG Version: 6.00 Build 0)  -->
<!DOCTYPE svg PUBLIC "-//W3C//DTD SVG 1.1//EN" "http://www.w3.org/Graphics/SVG/1.1/DTD/svg11.dtd">
<svg version="1.1" id="Layer_1" xmlns="http://www.w3.org/2000/svg" xmlns:xlink="http://www.w3.org/1999/xlink" x="0px" y="0px"
	 width="512px" height="512px" viewBox="0 0 512 512" enable-background="new 0 0 512 512" xml:space="preserve">
<g id="picassa">
	<g>
		<path d="M384.218,31C347.938,11.25,300.25,0,256,0c-25.812,0-50.688,3.875-74.188,11l202.406,207.875V31L384.218,31z
			 M144.312,32.656C50.344,70.594,0,171.469,0,256c0,15.469,1.624,30.531,4.25,45.249l225.812-174.78L144.312,32.656z
			 M416.155,49.75v300.781h75.095C508.876,315.779,512,297.625,512,256C512,167.625,484.25,95.719,416.155,49.75z M127.876,476.719
			V257.625l-106.47,85.249C38.218,404.031,76,443,127.876,476.719z M223.812,384.469h-26.783H159.75v109.5
			c35.406,18.438,45.626,18.03,96.25,18.03c91.188,0,171-55.78,216.344-127.53h-82.283H223.812z"/>
	</g>
</g>
</svg>
