<?xml version="1.0" encoding="utf-8"?>
<!-- Generator: Adobe Illustrator 16.0.0, SVG Export Plug-In . SVG Version: 6.00 Build 0)  -->
<!DOCTYPE svg PUBLIC "-//W3C//DTD SVG 1.1//EN" "http://www.w3.org/Graphics/SVG/1.1/DTD/svg11.dtd">
<svg version="1.1" id="Layer_1" xmlns="http://www.w3.org/2000/svg" xmlns:xlink="http://www.w3.org/1999/xlink" x="0px" y="0px"
	 width="510.436px" height="512px" viewBox="0 0 510.436 512" enable-background="new 0 0 510.436 512" xml:space="preserve">
<g id="pinterest">
	<g>
		<path d="M255.219,1.562C114.275,1.562,0,115.838,0,256.781C0,361.835,63.493,452.059,154.184,491.22
			c-0.685-17.758-0.031-39.006,4.486-58.228c4.922-20.78,32.961-139.573,32.961-139.573s-8.162-16.354-8.162-40.532
			c0-37.946,21.995-66.297,49.38-66.297c23.304,0,34.551,17.509,34.551,38.477c0,23.396-14.923,58.414-22.619,90.878
			c-6.418,27.166,13.646,49.349,40.439,49.349c48.508,0,81.188-62.341,81.188-136.208c0-56.141-37.759-98.168-106.549-98.168
			c-77.699,0-126.146,57.947-126.146,122.687c0,22.307,6.604,38.071,16.917,50.252c4.736,5.576,5.39,7.852,3.676,14.27
			c-1.246,4.704-4.019,16.045-5.203,20.562c-1.713,6.479-6.979,8.785-12.835,6.387c-35.766-14.58-52.465-53.771-52.465-97.825
			c0-72.777,61.375-160.041,183.064-160.041c97.826,0,162.16,70.783,162.16,146.738c0,100.505-55.86,175.556-138.202,175.556
			c-27.665,0-53.679-14.954-62.558-31.902c0,0-14.892,58.977-18.007,70.38c-5.39,19.472-15.765,38.911-25.36,54.209
			c22.307,6.387,45.922,9.812,70.316,9.812c140.943,0,255.219-114.275,255.219-255.219C510.436,115.84,396.162,1.562,255.219,1.562z
			"/>
	</g>
</g>
</svg>
