<?xml version="1.0" encoding="utf-8"?>
<!-- Generator: Adobe Illustrator 16.0.0, SVG Export Plug-In . SVG Version: 6.00 Build 0)  -->
<!DOCTYPE svg PUBLIC "-//W3C//DTD SVG 1.1//EN" "http://www.w3.org/Graphics/SVG/1.1/DTD/svg11.dtd">
<svg version="1.1" id="Layer_1" xmlns="http://www.w3.org/2000/svg" xmlns:xlink="http://www.w3.org/1999/xlink" x="0px" y="0px"
	 width="480.469px" height="512px" viewBox="0.502 0 480.469 512" enable-background="new 0.502 0 480.469 512"
	 xml:space="preserve">
<g id="rss">
	<g>
		<path d="M65.033,383.282c-35.616,0-64.531,28.82-64.531,64.312c0,35.552,28.915,64.312,64.531,64.312
			c35.676,0,64.559-28.761,64.559-64.312C129.592,412.104,100.709,383.282,65.033,383.282z M6.08,194.619
			c-1.216,0-2.461,0.217-3.708,0.217v89.114c1.246-0.063,2.492-0.188,3.708-0.188c123.233,0,223.5,99.862,223.5,222.63
			c0,1.9-0.248,3.707-0.28,5.607h89.365c0.062-1.9,0.311-3.707,0.311-5.607C318.976,334.489,178.606,194.619,6.08,194.619z
			 M6.08,33.214c-1.216,0-2.461,0.093-3.708,0.093v89.082c1.246,0,2.492-0.121,3.708-0.121
			c212.597,0,385.496,172.305,385.496,384.124c0,1.9-0.124,3.707-0.124,5.607h89.395c0-1.9,0.124-3.707,0.124-5.607
			C480.97,245.498,267.938,33.214,6.08,33.214z"/>
	</g>
</g>
</svg>
