<?xml version="1.0" encoding="utf-8"?>
<!-- Generator: Adobe Illustrator 16.0.0, SVG Export Plug-In . SVG Version: 6.00 Build 0)  -->
<!DOCTYPE svg PUBLIC "-//W3C//DTD SVG 1.1//EN" "http://www.w3.org/Graphics/SVG/1.1/DTD/svg11.dtd">
<svg version="1.1" id="Layer_1" xmlns="http://www.w3.org/2000/svg" xmlns:xlink="http://www.w3.org/1999/xlink" x="0px" y="0px"
	 width="287.392px" height="512px" viewBox="72.6 0 287.392 512" enable-background="new 72.6 0 287.392 512" xml:space="preserve">
<g id="tumblr">
	<g>
		<path d="M310.785,428.411c-43.727,0-78.077-34.009-78.077-60.263c0-11.586,0-65.59,0-143.354h94.833v-82.623h-94.833
			c0-66.99,0-109.532,0-109.532s-29.898,0-64.872,0c0,110.808-95.236,113.424-95.236,113.424v77.734h64.218c0,0,0,109.376,0,172.534
			c0,63.19,58.332,115.668,129.276,115.668c70.946,0,93.898-28.186,93.898-28.186v-83.59
			C359.992,400.226,354.541,428.411,310.785,428.411z"/>
	</g>
</g>
</svg>
