<?xml version="1.0" encoding="utf-8"?>
<!-- Generator: Adobe Illustrator 16.0.0, SVG Export Plug-In . SVG Version: 6.00 Build 0)  -->
<!DOCTYPE svg PUBLIC "-//W3C//DTD SVG 1.1//EN" "http://www.w3.org/Graphics/SVG/1.1/DTD/svg11.dtd">
<svg version="1.1" id="Layer_1" xmlns="http://www.w3.org/2000/svg" xmlns:xlink="http://www.w3.org/1999/xlink" x="0px" y="0px"
	 width="511.333px" height="512px" viewBox="0 0 511.333 512" enable-background="new 0 0 511.333 512" xml:space="preserve">
<g id="vimeo">
	<g>
		<path d="M430.657,64.583c-65.01,0-115.851,42.07-137.853,121.249c23.969-11.36,67.476-17.291,70.877,22.283
			c3.434,39.605-56.708,142.033-83.111,142.033c-26.339,0-45.939-115.817-52.805-168.749
			c-6.803-52.993-19.038-111.355-68.879-111.355C108.982,70.045,45.004,148.256,0,183.896l23.469,32.114
			c0,0,33.207-26.184,44.973-24.218c30.304,7.896,56.208,131.142,69.44,178.144C151.053,416.967,167.157,512,232.197,512
			c105.113,0,279.136-260.816,279.136-345.956C511.333,110.118,495.667,64.583,430.657,64.583z"/>
	</g>
</g>
</svg>
